HIERARCHY
ROOT Hips
{
 OFFSET 0.000000 0.000000 0.000000
 CHANNELS 6 Xposition Yposition Zposition Yrotation Xrotation Zrotation
 JOINT Chest
 {
  OFFSET 0.000000 13.173100 -0.061900
  CHANNELS 3 Yrotation Xrotation Zrotation
  JOINT Chest2
  {
   OFFSET 0.000000 8.040800 0.126200
   CHANNELS 3 Yrotation Xrotation Zrotation
   JOINT Chest3
   {
    OFFSET 0.000000 7.994400 0.000000
    CHANNELS 3 Yrotation Xrotation Zrotation
    JOINT Chest4
    {
     OFFSET 0.000000 7.986200 0.000000
     CHANNELS 3 Yrotation Xrotation Zrotation
     JOINT Neck
     {
      OFFSET 0.000000 12.259400 0.000000
      CHANNELS 3 Yrotation Xrotation Zrotation
      JOINT Head
      {
       OFFSET 0.000000 7.518700 0.267100
       CHANNELS 3 Yrotation Xrotation Zrotation
       End Site
       {
        OFFSET 0.000000 13.617700 0.141000
       }
      }
     }
     JOINT RightCollar
     {
      OFFSET -2.983800 8.314300 0.000000
      CHANNELS 3 Yrotation Xrotation Zrotation
      JOINT RightShoulder
      {
       OFFSET -16.133400 0.000000 0.000000
       CHANNELS 3 Yrotation Xrotation Zrotation
       JOINT RightElbow
       {
        OFFSET 0.000000 -29.822100 0.000000
        CHANNELS 3 Yrotation Xrotation Zrotation
        JOINT RightWrist
        {
         OFFSET 0.000000 -24.437700 0.010900
         CHANNELS 3 Yrotation Xrotation Zrotation
         End Site
         {
          OFFSET 0.000000 -18.312300 0.000000
         }
        }
       }
      }
     }
     JOINT LeftCollar
     {
      OFFSET 2.983800 8.314300 0.000000
      CHANNELS 3 Yrotation Xrotation Zrotation
      JOINT LeftShoulder
      {
       OFFSET 16.133400 0.000000 0.000000
       CHANNELS 3 Yrotation Xrotation Zrotation
       JOINT LeftElbow
       {
        OFFSET 0.000000 -29.822100 0.000000
        CHANNELS 3 Yrotation Xrotation Zrotation
        JOINT LeftWrist
        {
         OFFSET 0.000000 -24.437700 0.010900
         CHANNELS 3 Yrotation Xrotation Zrotation
         End Site
         {
          OFFSET 0.000000 -18.312300 0.000000
         }
        }
       }
      }
     }
    }
   }
  }
 }
 JOINT RightHip
 {
  OFFSET -11.206700 0.306200 0.030900
  CHANNELS 3 Yrotation Xrotation Zrotation
  JOINT RightKnee
  {
   OFFSET 0.000000 -57.334900 0.009400
   CHANNELS 3 Yrotation Xrotation Zrotation
   JOINT RightAnkle
   {
    OFFSET 0.000000 -43.376200 0.036600
    CHANNELS 3 Yrotation Xrotation Zrotation
    JOINT RightToe
    {
     OFFSET 0.000000 -10.035500 18.363100
     CHANNELS 3 Yrotation Xrotation Zrotation
     End Site
     {
      OFFSET 0.000000 -1.618500 7.239000
     }
    }
   }
  }
 }
 JOINT LeftHip
 {
  OFFSET 11.206700 0.306200 0.030900
  CHANNELS 3 Yrotation Xrotation Zrotation
  JOINT LeftKnee
  {
   OFFSET 0.000000 -57.334900 0.009400
   CHANNELS 3 Yrotation Xrotation Zrotation
   JOINT LeftAnkle
   {
    OFFSET 0.000000 -43.376200 0.036600
    CHANNELS 3 Yrotation Xrotation Zrotation
    JOINT LeftToe
    {
     OFFSET 0.000000 -10.035500 18.363100
     CHANNELS 3 Yrotation Xrotation Zrotation
     End Site
     {
      OFFSET 0.000000 -1.618500 7.239000
     }
    }
   }
  }
 }
}
MOTION
Frames: 11
Frame Time: 0.008333
0.000000 110.232800 0.000000 0.000000 -5.767877 0.000000 0.000000 11.653817 0.000000 0.000000 -5.885947 0.000000 0.000000 -0.000000 0.000000 0.000000 -0.000000 0.000000 0.000000 12.528835 0.000000 0.000000 0.711642 0.000000 0.000000 -0.000000 0.000000 0.000000 0.000000 -90.000000 0.000000 -2.309062 0.000000 0.000000 2.309062 0.000000 0.000000 -0.000000 0.000000 0.000000 -0.000000 90.000000 0.000000 -2.309062 0.000000 0.000000 2.309062 0.000000 0.000000 8.520406 0.000000 0.000000 1.905762 0.000000 -0.000000 -4.658285 0.000000 0.000000 -0.000000 0.000000 0.000000 8.520406 0.000000 0.000000 1.905762 0.000000 -0.000000 -4.658285 0.000000 0.000000 -0.000000 0.000000
-74.247938 70.645755 40.169060 -170.630340 -25.923580 -10.404815 -2.070314 14.173186 7.130665 -2.048841 8.344176 1.785942 -2.517888 10.471811 2.195303 -2.044879 8.358516 1.788452 2.133639 17.806513 -1.448904 2.583347 -6.924085 -2.017790 3.897487 -3.262095 -3.333494 -2.264799 -13.454003 -2.224202 72.360406 -41.494616 -54.314139 8.281054 13.954517 -6.719745 -9.588022 -0.868260 -5.071709 -4.759739 -10.544625 5.229875 -80.415497 -36.498598 70.347889 3.190285 1.550962 -1.266717 -28.097570 -29.889688 6.782994 60.601167 86.847615 58.572179 1.583314 -28.921037 -5.390022 -1.265415 2.625118 -0.707451 -16.147981 -49.351590 10.269992 171.286637 72.884502 170.658704 2.151385 -24.112899 -1.505437 -1.435789 -2.746090 -0.788421
-74.233793 70.667932 40.165839 -170.662726 -25.938487 -10.412583 -2.041856 14.173782 7.146953 -2.044153 8.336515 1.788440 -2.517846 10.474151 2.193887 -2.038834 8.327789 1.795244 2.099239 17.821908 -1.464933 2.534878 -6.954390 -2.028148 3.911075 -3.247376 -3.332769 -2.130834 -13.729583 -2.251567 72.019939 -41.295587 -53.965857 8.384130 14.103401 -6.468485 -9.586634 -0.940437 -5.064578 -4.820120 -10.634307 5.277370 -80.226753 -36.429669 69.987474 3.052059 1.831613 -1.521651 -28.078307 -29.870130 6.805740 60.559257 86.843416 58.539193 1.593091 -28.910742 -5.400306 -1.266336 2.620566 -0.708926 -16.153477 -49.321673 10.337445 171.343686 72.883886 170.682488 2.145079 -24.137981 -1.479964 -1.443786 -2.743649 -0.794210
-74.221260 70.691934 40.163922 -170.682921 -25.950234 -10.414180 -2.022738 14.168222 7.153507 -2.043807 8.327886 1.791781 -2.515739 10.474398 2.195203 -2.037820 8.317524 1.799391 2.083294 17.844152 -1.475251 2.466705 -7.005030 -2.038962 3.955143 -3.300740 -3.323039 -2.031286 -13.954386 -2.297975 71.693178 -41.089265 -53.620589 8.490522 14.248976 -6.214234 -9.591116 -1.033977 -5.056149 -4.880004 -10.737091 5.312428 -80.020322 -36.374260 69.638404 2.888039 2.079405 -1.749151 -28.065812 -29.855217 6.818632 60.491331 86.842917 58.478743 1.600737 -28.909976 -5.412185 -1.266711 2.626213 -0.707515 -16.171443 -49.280786 10.413848 171.464751 72.898705 170.754018 2.107809 -24.201673 -1.451152 -1.424188 -2.703807 -0.785027
-74.209138 70.716695 40.163845 -170.698060 -25.958666 -10.414460 -2.014334 14.145011 7.155773 -2.038901 8.338398 1.795476 -2.516309 10.438660 2.202612 -2.037055 8.334742 1.797965 2.036978 17.835926 -1.495816 2.422621 -7.022818 -2.046140 4.003749 -3.354409 -3.312787 -1.945365 -14.175940 -2.351401 71.373230 -40.883581 -53.275655 8.592038 14.388285 -5.968921 -9.611971 -1.102638 -5.058851 -4.942752 -10.879455 5.349214 -79.805009 -36.273995 69.267902 2.773649 2.289681 -1.910407 -28.055790 -29.846604 6.825881 60.448985 86.843145 58.449350 1.610391 -28.907324 -5.422579 -1.269424 2.630097 -0.710051 -16.195708 -49.246505 10.484566 171.578806 72.913678 170.819368 2.079784 -24.256136 -1.429574 -1.410373 -2.668228 -0.774825
-74.196456 70.742630 40.163342 -170.711671 -25.976473 -10.420613 -1.996546 14.149651 7.168027 -2.039276 8.342579 1.795767 -2.515733 10.399576 2.213740 -2.039557 8.360542 1.790179 1.969216 17.765921 -1.514800 2.403826 -6.996326 -2.055222 4.046987 -3.416307 -3.298645 -1.856499 -14.409553 -2.407459 71.056065 -40.681961 -52.927199 8.683338 14.524536 -5.742892 -9.641393 -1.184999 -5.058378 -5.011315 -11.041344 5.385313 -79.567568 -36.135887 68.869259 2.707203 2.468164 -2.020649 -28.047023 -29.828278 6.831325 60.424956 86.843547 58.438816 1.622891 -28.898566 -5.425980 -1.272804 2.633916 -0.715077 -16.222795 -49.205865 10.554900 171.671534 72.923899 170.866730 2.055802 -24.300206 -1.406726 -1.405037 -2.639672 -0.770791
-74.182986 70.767169 40.166131 -170.730681 -25.987099 -10.430083 -1.983168 14.130768 7.182985 -2.037986 8.338913 1.798464 -2.513819 10.411021 2.214594 -2.038912 8.360542 1.789768 1.919588 17.723019 -1.526076 2.371702 -6.989040 -2.067272 4.068752 -3.439284 -3.293104 -1.751789 -14.684986 -2.456960 70.737355 -40.488575 -52.571079 8.764992 14.661952 -5.533746 -9.678747 -1.258640 -5.063759 -5.091871 -11.224911 5.424780 -79.275901 -36.019279 68.467782 2.625347 2.624337 -2.141928 -28.047806 -29.812742 6.847913 60.335730 86.839269 58.359550 1.647823 -28.893742 -5.442968 -1.284376 2.642863 -0.720367 -16.266850 -49.173184 10.646306 171.765926 72.932159 170.906076 2.036751 -24.341800 -1.383389 -1.407383 -2.611599 -0.767274
-74.170045 70.788883 40.173856 -170.758758 -25.983746 -10.435670 -1.984455 14.057475 7.196470 -2.037217 8.330155 1.804262 -2.501456 10.466755 2.205291 -2.037758 8.334341 1.802085 1.873484 17.725917 -1.548611 2.335158 -6.985584 -2.078061 4.090383 -3.436291 -3.299657 -1.648684 -14.961244 -2.511082 70.410933 -40.301087 -52.203358 8.840978 14.798779 -5.329999 -9.725336 -1.300737 -5.093923 -5.186513 -11.424714 5.469361 -78.945297 -35.920662 68.065914 2.540786 2.775891 -2.276341 -28.053397 -29.815965 6.873162 60.211501 86.837328 58.251867 1.670214 -28.880574 -5.465396 -1.286182 2.648753 -0.724275 -16.310622 -49.153111 10.755903 171.897889 72.945635 170.979235 1.992379 -24.395372 -1.352571 -1.381889 -2.573499 -0.756861
-74.158400 70.811356 40.179086 -170.787511 -26.001742 -10.443586 -1.971132 14.036815 7.208605 -2.037479 8.325813 1.806628 -2.496316 10.463687 2.210454 -2.036751 8.330234 1.804273 1.834366 17.735268 -1.564734 2.304334 -6.972579 -2.087601 4.173607 -3.540251 -3.260782 -1.582238 -15.133246 -2.612279 70.065635 -40.132021 -51.816958 8.932273 14.939129 -5.132605 -9.771555 -1.337346 -5.123090 -5.290859 -11.635220 5.516722 -78.597645 -35.856704 67.683331 2.444841 2.944751 -2.431934 -28.070305 -29.792387 6.899150 60.070172 86.826746 58.095691 1.702165 -28.875436 -5.470877 -1.309056 2.665123 -0.739914 -16.310393 -49.115326 10.821119 171.990598 72.957577 171.047715 1.963610 -24.446915 -1.337604 -1.350500 -2.547373 -0.747766
-74.147082 70.832020 40.186804 -170.808464 -26.014293 -10.458136 -1.966055 14.008501 7.220698 -2.029334 8.345090 1.811321 -2.521390 10.386701 2.219848 -2.035052 8.335391 1.805734 1.829168 17.811937 -1.588727 2.261049 -6.968798 -2.092125 4.249990 -3.556925 -3.244576 -1.492723 -15.350870 -2.688716 69.698182 -39.995486 -51.410562 9.052564 15.094296 -4.948350 -9.803508 -1.327516 -5.172111 -5.397454 -11.853308 5.561664 -78.216367 -35.727656 67.251335 2.417674 3.070724 -2.546918 -28.079105 -29.773193 6.928702 59.866299 86.820820 57.887314 1.724113 -28.869828 -5.480395 -1.324746 2.679044 -0.746594 -16.315816 -49.087652 10.880324 172.052587 72.966076 171.091749 1.956017 -24.490995 -1.332047 -1.345037 -2.516769 -0.738737
-74.130276 70.857577 40.185504 -170.851353 -26.080311 -10.499113 -1.912670 14.048210 7.273429 -2.029723 8.343814 1.813289 -2.532944 10.355617 2.219016 -2.039919 8.316562 1.810418 1.826240 17.868674 -1.600526 2.223965 -6.961820 -2.096160 4.311502 -3.574287 -3.223858 -1.387092 -15.592216 -2.752426 69.318628 -39.756651 -51.028748 9.092975 15.180517 -4.757780 -9.812232 -1.295844 -5.202137 -5.532974 -12.111783 5.596339 -77.814017 -35.605762 66.823019 2.376812 3.188513 -2.655186 -28.061120 -29.694644 6.970392 59.642820 86.813492 57.658959 1.739688 -28.836881 -5.469771 -1.342985 2.667563 -0.768852 -16.315146 -49.020927 10.969031 172.033808 72.939332 171.038877 1.979121 -24.479531 -1.292152 -1.406330 -2.551733 -0.764053
